<svg width="290" height="380" viewBox="0 0 290 380" fill="none" xmlns="http://www.w3.org/2000/svg">
<rect width="290" height="380" rx="11" fill="#0F2B61"/>
<path fill-rule="evenodd" clip-rule="evenodd" d="M166.318 122.671C164.841 119.596 162.526 117.001 159.639 115.185C156.752 113.368 153.411 112.405 150 112.405C146.589 112.405 143.248 113.368 140.361 115.185C137.474 117.001 135.159 119.596 133.683 122.671L81.6049 225.113C75.3743 237.343 83.2475 253.583 97.916 253.583H202.078C216.753 253.583 224.613 237.349 218.395 225.113L166.318 122.671ZM150 157.333C151.702 157.333 153.334 158.009 154.537 159.213C155.741 160.416 156.417 162.048 156.417 163.75V195.833C156.417 197.535 155.741 199.167 154.537 200.371C153.334 201.574 151.702 202.25 150 202.25C148.298 202.25 146.666 201.574 145.463 200.371C144.259 199.167 143.583 197.535 143.583 195.833V163.75C143.583 162.048 144.259 160.416 145.463 159.213C146.666 158.009 148.298 157.333 150 157.333ZM150 211.875C151.702 211.875 153.334 212.551 154.537 213.754C155.741 214.958 156.417 216.59 156.417 218.292V221.5C156.417 223.202 155.741 224.834 154.537 226.037C153.334 227.241 151.702 227.917 150 227.917C148.298 227.917 146.666 227.241 145.463 226.037C144.259 224.834 143.583 223.202 143.583 221.5V218.292C143.583 216.59 144.259 214.958 145.463 213.754C146.666 212.551 148.298 211.875 150 211.875Z" fill="white"/>
</svg>
