<svg width="500" height="500" viewBox="0 0 500 500" fill="none" xmlns="http://www.w3.org/2000/svg">
<path d="M500 382.4H0V382.65H500V382.4Z" fill="#EBEBEB"/>
<path d="M449.9 398.49H416.78V398.74H449.9V398.49Z" fill="#EBEBEB"/>
<path d="M331.22 401.21H322.53V401.46H331.22V401.21Z" fill="#EBEBEB"/>
<path d="M415.78 389.21H396.59V389.46H415.78V389.21Z" fill="#EBEBEB"/>
<path d="M95.65 390.89H52.46V391.14H95.65V390.89Z" fill="#EBEBEB"/>
<path d="M110.89 390.89H104.56V391.14H110.89V390.89Z" fill="#EBEBEB"/>
<path d="M225.15 395.11H131.47V395.36H225.15V395.11Z" fill="#EBEBEB"/>
<path d="M237 337.8H43.91C42.3973 337.797 40.9475 337.195 39.8788 336.124C38.8102 335.053 38.21 333.603 38.21 332.09V60.66C38.2231 59.156 38.8292 57.718 39.8964 56.6582C40.9637 55.5985 42.4059 55.0026 43.91 55H237C238.514 55 239.967 55.6016 241.038 56.6724C242.108 57.7433 242.71 59.1956 242.71 60.71V332.09C242.71 333.604 242.108 335.057 241.038 336.128C239.967 337.198 238.514 337.8 237 337.8ZM43.91 55.2C42.4636 55.2026 41.0774 55.7791 40.0556 56.8027C39.0338 57.8264 38.46 59.2136 38.46 60.66V332.09C38.46 333.536 39.0338 334.924 40.0556 335.947C41.0774 336.971 42.4636 337.547 43.91 337.55H237C238.447 337.547 239.834 336.971 240.858 335.948C241.881 334.924 242.457 333.537 242.46 332.09V60.66C242.457 59.2127 241.881 57.8255 240.858 56.8021C239.834 55.7787 238.447 55.2026 237 55.2H43.91Z" fill="#EBEBEB"/>
<path d="M453.31 337.8H260.21C258.696 337.797 257.246 337.195 256.175 336.125C255.105 335.054 254.503 333.604 254.5 332.09V60.66C254.516 59.1551 255.124 57.7171 256.193 56.6576C257.262 55.5981 258.705 55.0025 260.21 55H453.31C454.812 55.0052 456.252 55.6022 457.317 56.6617C458.382 57.7212 458.987 59.1578 459 60.66V332.09C459 333.601 458.401 335.05 457.335 336.121C456.268 337.191 454.821 337.795 453.31 337.8ZM260.21 55.2C258.763 55.2026 257.375 55.7787 256.352 56.8021C255.329 57.8255 254.753 59.2127 254.75 60.66V332.09C254.753 333.537 255.329 334.924 256.352 335.948C257.375 336.971 258.763 337.547 260.21 337.55H453.31C454.757 337.547 456.145 336.971 457.168 335.948C458.191 334.924 458.767 333.537 458.77 332.09V60.66C458.767 59.2127 458.191 57.8255 457.168 56.8021C456.145 55.7787 454.757 55.2026 453.31 55.2H260.21Z" fill="#EBEBEB"/>
<path d="M277.73 160.69L277.28 147.55L285.35 144.92C285.688 140.467 286.407 136.051 287.5 131.72L280.66 126.72L285.3 114.37L293.76 115.06C295.764 111.083 298.106 107.286 300.76 103.71L296.38 96.3902L305.38 86.7802L313 90.6102C316.399 87.715 320.024 85.0967 323.84 82.7802L322.62 74.3902L334.62 68.9402L340.12 75.3802C344.365 74.0276 348.712 73.0242 353.12 72.3802L355.12 64.1602L368.3 63.7002L370.9 71.7702C375.348 72.1297 379.759 72.8487 384.09 73.9202L389.17 67.1202L401.52 71.7302L400.83 80.1902C404.803 82.2279 408.6 84.5927 412.18 87.2602L419.46 82.8802L429.11 91.8802L425.24 99.4702C428.145 102.855 430.754 106.481 433.04 110.31L441.43 109.05L447 121L440.52 126.5C441.888 130.74 442.892 135.089 443.52 139.5L451.78 141.57L452.23 154.71L444.13 157.35C443.796 161.804 443.077 166.221 441.98 170.55L448.82 175.55L444.17 187.89L435.72 187.21C433.702 191.19 431.343 194.987 428.67 198.56L433.06 205.87L424.06 215.49L416.5 211.61C413.11 214.519 409.484 217.141 405.66 219.45L406.92 227.84L394.92 233.28L389.39 226.84C385.149 228.214 380.8 229.235 376.39 229.89L374.39 238.12L361.21 238.57L358.61 230.5C354.158 230.151 349.743 229.432 345.41 228.35L340.41 235.15L328 230.58L328.65 222.13C324.679 220.086 320.883 217.718 317.3 215.05L310 219.43L300.35 210.43L304.22 202.83C301.307 199.452 298.691 195.828 296.4 192L288 193.28L282.52 181.28L289 175.78C287.612 171.543 286.592 167.193 285.95 162.78L277.73 160.69ZM366.52 203.26C376.833 202.912 386.81 199.513 395.19 193.493C403.571 187.473 409.977 179.102 413.599 169.441C417.221 159.779 417.897 149.26 415.54 139.214C413.182 129.169 407.899 120.048 400.357 113.006C392.815 105.964 383.355 101.317 373.171 99.6528C362.988 97.9886 352.54 99.3822 343.149 103.657C333.758 107.932 325.845 114.896 320.413 123.669C314.981 132.441 312.272 142.628 312.63 152.94C313.105 166.759 319.049 179.823 329.155 189.26C339.261 198.696 352.701 203.732 366.52 203.26Z" fill="#EBEBEB"/>
<path d="M119.77 316.43L119.57 310.51L123.21 309.32C123.375 307.312 123.71 305.321 124.21 303.37L121.13 301.1L123.22 295.53L127.03 295.84C127.941 294.045 129.005 292.332 130.21 290.72L128.21 287.42L132.28 283.09L135.68 284.84C137.213 283.531 138.849 282.348 140.57 281.3L140.02 277.52L145.43 275.06L147.9 278C149.817 277.383 151.78 276.921 153.77 276.62L154.69 272.91L160.63 272.71L161.8 276.35C163.808 276.517 165.798 276.852 167.75 277.35L170.04 274.28L175.61 276.36L175.3 280.17C177.089 281.095 178.801 282.162 180.42 283.36L183.7 281.36L188.05 285.36L186.3 288.79C187.616 290.313 188.794 291.949 189.82 293.68L193.61 293.11L196.08 298.52L193.16 301C193.781 302.915 194.239 304.878 194.53 306.87L198.26 307.8L198.46 313.73L194.81 314.92C194.647 316.928 194.313 318.919 193.81 320.87L196.89 323.14L194.8 328.71L190.98 328.4C190.069 330.193 189.009 331.905 187.81 333.52L189.81 336.81L185.75 341.15L182.34 339.4C180.813 340.715 179.177 341.9 177.45 342.94L178.02 346.72L172.61 349.17L170.12 346.27C168.204 346.886 166.241 347.347 164.25 347.65L163.33 351.36L157.39 351.56L156.21 347.92C154.186 347.755 152.179 347.42 150.21 346.92L148 350L142.42 348L142.72 344.19C140.931 343.265 139.219 342.198 137.6 341L134.32 343L129.97 339L131.71 335.57C130.398 334.045 129.22 332.408 128.19 330.68L124.41 331.25L121.94 325.84L124.86 323.36C124.234 321.446 123.772 319.482 123.48 317.49L119.77 316.43ZM159.77 335.63C164.42 335.473 168.919 333.94 172.698 331.226C176.477 328.511 179.366 324.737 180.999 320.38C182.633 316.023 182.937 311.28 181.874 306.75C180.811 302.221 178.429 298.108 175.028 294.932C171.627 291.757 167.361 289.662 162.769 288.911C158.177 288.161 153.466 288.789 149.232 290.717C144.997 292.645 141.429 295.785 138.98 299.741C136.53 303.697 135.309 308.29 135.47 312.94C135.577 316.028 136.292 319.065 137.574 321.878C138.855 324.69 140.678 327.222 142.938 329.329C145.199 331.436 147.852 333.077 150.747 334.158C153.642 335.239 156.722 335.74 159.81 335.63H159.77Z" fill="#F5F5F5"/>
<path d="M117.69 96.0001L114.38 93.0001L115.7 90.3901C114.692 89.2034 113.789 87.932 113 86.5901L110.1 87.0301L108.23 82.8901L110.45 80.9901C109.989 79.5282 109.654 78.0293 109.45 76.5101L106.6 75.7901L106.46 71.2501L109.24 70.3501C109.362 68.8158 109.61 67.294 109.98 65.8001L107.63 64.0501L109.23 59.8001L112.14 60.0301C112.842 58.6594 113.654 57.3483 114.57 56.1101L113 53.6101L116.1 50.2801L118.71 51.6201C119.881 50.6199 121.132 49.7169 122.45 48.9201L122.05 46.0001L126.18 44.1101L128.08 46.3401C129.546 45.8834 131.048 45.5489 132.57 45.3401L133.28 42.5001L137.82 42.3301L138.73 45.1301C140.262 45.2421 141.781 45.4898 143.27 45.8701L145 43.5101L149.26 45.0901L149 48.0001C150.403 48.6941 151.741 49.5106 153 50.4401L155.52 48.9401L158.79 52.0001L157.45 54.6201C158.459 55.7843 159.363 57.0359 160.15 58.3601L163 58.0001L164.88 62.1501L162.69 64.0001C163.168 65.4639 163.519 66.9661 163.74 68.4901L166.6 69.2001L166.74 73.7401L163.95 74.6401C163.835 76.1779 163.591 77.7033 163.22 79.2001L165.58 80.9301L164 85.1801L161.06 85.0001C160.358 86.3676 159.545 87.6753 158.63 88.9101L160.14 91.4201L157 94.7001L154.4 93.3701C153.229 94.3671 151.978 95.2668 150.66 96.0601L151.09 98.9501L147 100.84L145.1 98.6201C143.632 99.072 142.131 99.4064 140.61 99.6201L139.9 102.46L135.36 102.62L134.45 99.8301C132.918 99.7137 131.399 99.4661 129.91 99.0901L128.17 101.44L123.91 99.8501L124.14 96.9301C122.769 96.2342 121.461 95.4212 120.23 94.5001L117.69 96.0001ZM141.31 76.8701C142.183 75.9348 142.759 74.7618 142.965 73.4992C143.172 72.2367 142.999 70.9413 142.47 69.7767C141.94 68.6122 141.077 67.6308 139.99 66.9566C138.902 66.2825 137.64 65.9458 136.361 65.9891C135.082 66.0324 133.845 66.4538 132.806 67.2C131.767 67.9462 130.973 68.9838 130.523 70.1815C130.073 71.3792 129.989 72.6833 130.28 73.929C130.572 75.1747 131.226 76.3061 132.16 77.1801C132.778 77.7647 133.505 78.2216 134.299 78.5245C135.094 78.8275 135.941 78.9705 136.791 78.9454C137.641 78.9204 138.478 78.7276 139.253 78.3784C140.029 78.0291 140.728 77.5301 141.31 76.9101V76.8701Z" fill="#EBEBEB"/>
<path d="M209.38 311L216.94 305.78C217.668 303.061 218.673 300.424 219.94 297.91L218 290.3L229 278.55L236.72 279.97C239.138 278.522 241.698 277.326 244.36 276.4L249.06 268.5L265.12 267.95L270.34 275.51C273.06 276.236 275.697 277.242 278.21 278.51L285.81 276.58L297.56 287.58L296.15 295.28C297.606 297.704 298.803 300.275 299.72 302.95L307.63 307.64L308.18 323.71L300.61 328.93C299.887 331.667 298.881 334.321 297.61 336.85L299.54 344.43L288.54 356.18L280.86 354.77C278.417 356.219 275.834 357.419 273.15 358.35L268.46 366.24L252.4 366.79L247.18 359.24C244.44 358.508 241.78 357.503 239.24 356.24L231.68 358.16L219.93 347.16L221.34 339.45C219.884 337.023 218.687 334.448 217.77 331.77L209.86 327.08L209.38 311ZM259.44 335.42C263.012 335.297 266.468 334.118 269.37 332.03C272.272 329.943 274.49 327.042 275.743 323.694C276.995 320.346 277.227 316.701 276.408 313.222C275.589 309.742 273.757 306.584 271.143 304.146C268.528 301.708 265.25 300.1 261.721 299.526C258.193 298.951 254.574 299.436 251.321 300.92C248.069 302.403 245.329 304.817 243.449 307.858C241.569 310.898 240.633 314.428 240.76 318C240.927 322.789 242.988 327.316 246.491 330.586C249.993 333.856 254.651 335.602 259.44 335.44V335.42Z" fill="#EBEBEB"/>
<path d="M74.1004 121C73.9172 121.001 73.7365 120.956 73.5744 120.871C73.4122 120.786 73.2735 120.662 73.1704 120.51L70.3804 116.51C69.0071 116.107 67.6692 115.592 66.3804 114.97L62.3805 115.97C62.1955 116.02 62.0006 116.022 61.8149 115.975C61.6291 115.927 61.4588 115.833 61.3204 115.7L54.5205 109.35C54.3834 109.226 54.2796 109.069 54.2184 108.895C54.1573 108.72 54.1408 108.533 54.1704 108.35L54.9204 104.35C54.2033 103.109 53.5976 101.808 53.1105 100.46L48.8805 97.9401C48.7177 97.8432 48.5815 97.7076 48.4838 97.5453C48.3861 97.3831 48.33 97.1992 48.3204 97.0101L48.0004 87.5401C47.9908 87.3455 48.0306 87.1517 48.1163 86.9768C48.202 86.8019 48.3308 86.6516 48.4905 86.5401L52.4905 83.7501C52.8828 82.3733 53.3982 81.0345 54.0304 79.7501L53.0304 75.7501C52.9857 75.5648 52.9869 75.3713 53.0339 75.1866C53.081 75.0018 53.1725 74.8314 53.3004 74.6901L59.6604 67.8901C59.7868 67.7562 59.944 67.6553 60.1183 67.5961C60.2926 67.5368 60.4787 67.521 60.6604 67.5501L64.7205 68.2901C65.9603 67.5781 67.2582 66.9726 68.6004 66.4801L71.1105 62.2501C71.2081 62.0866 71.3455 61.9505 71.5098 61.8544C71.6742 61.7582 71.8601 61.7051 72.0505 61.7001L81.3504 61.3801C81.545 61.3704 81.7388 61.4103 81.9137 61.496C82.0886 61.5817 82.2389 61.7104 82.3504 61.8701L85.1404 65.8701C86.5147 66.2699 87.8528 66.7851 89.1404 67.4101L93.1404 66.4101C93.3166 66.3737 93.4989 66.3792 93.6726 66.4261C93.8462 66.473 94.0065 66.56 94.1404 66.6801L101 73.0901C101.134 73.2165 101.235 73.3736 101.294 73.5479C101.354 73.7222 101.37 73.9083 101.34 74.0901L100.6 78.0901C101.312 79.3371 101.918 80.6416 102.41 81.9901L106.64 84.5001C106.803 84.5961 106.939 84.7318 107.035 84.8944C107.131 85.057 107.185 85.2413 107.19 85.4301L107.51 94.7401C107.521 94.9348 107.482 95.1289 107.396 95.304C107.31 95.4791 107.181 95.6292 107.02 95.7401L103.02 98.5401C102.626 99.9147 102.114 101.253 101.49 102.54L102.49 106.54C102.538 106.725 102.538 106.919 102.491 107.105C102.444 107.29 102.351 107.46 102.22 107.6L95.8705 114.4C95.7426 114.532 95.5852 114.631 95.4114 114.691C95.2375 114.75 95.0522 114.767 94.8705 114.74L90.8705 114C89.6228 114.72 88.3145 115.329 86.9604 115.82L84.4504 120.04C84.3528 120.204 84.2154 120.34 84.0511 120.436C83.8867 120.532 83.7008 120.585 83.5105 120.59L74.2104 120.91L74.1004 121ZM66.4805 112.59C66.6574 112.591 66.8318 112.632 66.9904 112.71C68.3874 113.422 69.8555 113.985 71.3705 114.39C71.6306 114.459 71.8575 114.619 72.0105 114.84L74.6805 118.71L82.7505 118.44L85.1404 114.44C85.2868 114.2 85.5135 114.019 85.7804 113.93C87.2546 113.409 88.6719 112.738 90.0105 111.93C90.2484 111.79 90.5289 111.74 90.8005 111.79L94.6304 112.49L100.14 106.59L99.1404 102.8C99.0749 102.531 99.1068 102.248 99.2305 102C99.9394 100.61 100.499 99.1483 100.9 97.6401C100.969 97.3773 101.133 97.1493 101.36 97.0001L105.23 94.3301L105 86.2101L101 83.8101C100.768 83.6737 100.594 83.4566 100.51 83.2001C99.9912 81.7345 99.3209 80.327 98.5105 79.0001C98.3589 78.7554 98.302 78.4638 98.3504 78.1801L99.0005 74.3201L93.1004 68.8201L89.3005 69.8201C89.0312 69.8807 88.7495 69.849 88.5005 69.7301C87.1293 69.0095 85.6886 68.4299 84.2004 68.0001C83.9378 67.9308 83.7077 67.7716 83.5505 67.5501L80.8705 63.7001L72.8104 64.0001L70.4005 68.0001C70.2984 68.1804 70.1453 68.3266 69.9604 68.4201L69.7305 68.5201C68.2788 69.0214 66.8844 69.675 65.5704 70.4701C65.3328 70.6109 65.052 70.6607 64.7804 70.6101L60.9204 69.9001L55.4104 75.8001L56.4104 79.6001C56.48 79.8678 56.4516 80.1515 56.3305 80.4001C55.622 81.7848 55.059 83.2393 54.6505 84.7401C54.5778 85.0039 54.4151 85.2339 54.1904 85.3901L50.3204 88.0601L50.6004 96.1301L54.6004 98.5301C54.8306 98.6692 55.0042 98.8853 55.0904 99.1401C55.6078 100.616 56.2781 102.034 57.0904 103.37C57.2304 103.608 57.2801 103.888 57.2304 104.16L56.5304 108.01L62.4304 113.52L66.2104 112.52C66.3009 112.512 66.3921 112.519 66.4805 112.54V112.59ZM77.7605 108.19C73.2785 108.111 69.0091 106.265 65.8816 103.053C62.7541 99.842 61.0216 95.5252 61.0611 91.0427C61.1007 86.5602 62.9091 82.2747 66.0928 79.119C69.2765 75.9633 73.5778 74.1927 78.0604 74.1927C82.5431 74.1927 86.8444 75.9633 90.0281 79.119C93.2118 82.2747 95.0202 86.5602 95.0598 91.0427C95.0993 95.5252 93.3668 99.842 90.2393 103.053C87.1118 106.265 82.8424 108.111 78.3605 108.19H77.7605ZM77.7605 76.4401H77.2404C73.3325 76.5727 69.6373 78.2523 66.9677 81.1094C64.2981 83.9665 62.8728 87.7671 63.0055 91.6751C63.1381 95.5831 64.8177 99.2783 67.6748 101.948C70.5319 104.617 74.3325 106.043 78.2404 105.91C82.1497 105.845 85.8731 104.23 88.5914 101.42C91.3098 98.6094 92.8004 94.8344 92.7355 90.9251C92.6705 87.0158 91.0552 83.2924 88.245 80.5741C85.4347 77.8558 81.6597 76.3651 77.7505 76.4301L77.7605 76.4401Z" fill="#EBEBEB"/>
<path d="M250 427.56C357.083 427.56 443.89 422.492 443.89 416.24C443.89 409.988 357.083 404.92 250 404.92C142.918 404.92 56.1104 409.988 56.1104 416.24C56.1104 422.492 142.918 427.56 250 427.56Z" fill="#F5F5F5"/>
<path d="M416.41 82.46H83.5903C75.4109 82.46 68.7803 89.0906 68.7803 97.27V310.06C68.7803 318.239 75.4109 324.87 83.5903 324.87H416.41C424.59 324.87 431.22 318.239 431.22 310.06V97.27C431.22 89.0906 424.59 82.46 416.41 82.46Z" fill="white"/>
<path d="M435.26 247.65H434.26V238.65H435.26V247.65ZM435.26 231.55H434.26V212.89H435.26V231.55Z" fill="#407BFF"/>
<path d="M416.41 325.41H83.5902C79.5208 325.405 75.6195 323.786 72.742 320.908C69.8645 318.031 68.2455 314.129 68.2402 310.06V97.2699C68.2429 93.1997 69.861 89.2969 72.7391 86.4188C75.6172 83.5407 79.52 81.9226 83.5902 81.9199H416.41C420.48 81.9226 424.383 83.5407 427.261 86.4188C430.14 89.2969 431.758 93.1997 431.76 97.2699V310.06C431.755 314.129 430.136 318.031 427.258 320.908C424.381 323.786 420.48 325.405 416.41 325.41ZM83.5902 82.9999C79.8064 83.0026 76.1783 84.5069 73.5027 87.1824C70.8272 89.858 69.3229 93.4861 69.3202 97.2699V310.06C69.3229 313.844 70.8272 317.472 73.5027 320.147C76.1783 322.823 79.8064 324.327 83.5902 324.33H416.41C420.194 324.327 423.822 322.823 426.498 320.147C429.173 317.472 430.678 313.844 430.68 310.06V97.2699C430.678 93.4861 429.173 89.858 426.498 87.1824C423.822 84.5069 420.194 83.0026 416.41 82.9999H83.5902Z" fill="#407BFF"/>
<path opacity="0.5" d="M189.8 274.75H184.8V273.67H189.8L189.89 274.75H189.8ZM179.72 274.75H174.67V273.67H179.72V274.75ZM169.63 274.75H164.63V273.67H169.63V274.75ZM159.55 274.75H154.5V273.67H159.55V274.75ZM149.46 274.75H144.46V273.67H149.46V274.75ZM139.37 274.75H134.37V273.67H139.37V274.75ZM129.29 274.75H124.29V273.67H129.29V274.75ZM119.2 274.75H114.2V273.67H119.2V274.75ZM109.12 274.75H104.12V273.67H109.12V274.75ZM99.03 274.75H97.15C96.0072 274.753 94.8798 274.486 93.86 273.97L94.34 272.97C95.2111 273.411 96.1738 273.64 97.15 273.64H99L99.03 274.75ZM194.82 272.75L194.09 271.96C195.246 270.896 195.96 269.436 196.09 267.87L197.17 267.96C197.018 269.801 196.179 271.518 194.82 272.77V272.75ZM90.28 270C89.958 269.153 89.792 268.256 89.79 267.35V264.81H90.87V267.35C90.8682 268.123 91.0106 268.889 91.29 269.61L90.28 270ZM197.16 262.85H196.08V257.85H197.16V262.85ZM90.87 259.81H89.79V254.81H90.87V259.81ZM197.16 252.81H196.08V247.81H197.16V252.81ZM90.87 249.73H89.79V244.73H90.87V249.73ZM197.16 242.73H196.08V237.73H197.16V242.73ZM90.87 239.64H89.79V234.64H90.87V239.64ZM197.16 232.64H196.08V227.64H197.16V232.64ZM90.87 229.56H89.79V224.51H90.87V229.56ZM197.16 222.56H196.08V217.56H197.16V222.56ZM90.87 219.47H89.79V214.47H90.87V219.47ZM197.16 212.47H196.08V207.42H197.16V212.47ZM90.87 209.38H89.79V204.38H90.87V209.38ZM197.16 202.38H196.08V197.38H197.16V202.38ZM90.87 199.3H89.79V194.3H90.87V199.3ZM197.16 192.3H196.08V187.25H197.16V192.3ZM90.87 189.21H89.79V184.21H90.87V189.21ZM197.16 182.21H196.08V177.21H197.16V182.21ZM90.87 179.13H89.79V174.13H90.87V179.13ZM197.16 172.13H196.08V167.13H197.16V172.13ZM90.87 169H89.79V164H90.87V169ZM197.16 162H196.08V157H197.16V162ZM90.87 159H89.79V153.95H90.87V159ZM197.16 152H196.08V149.51C196.083 148.726 195.938 147.949 195.65 147.22L196.65 146.82C196.989 147.676 197.162 148.589 197.16 149.51V152ZM90.9 149L89.82 148.91C89.9784 147.081 90.8127 145.377 92.16 144.13L92.9 144.93C91.7612 145.965 91.0483 147.388 90.9 148.92V149ZM192.58 143.91C191.716 143.48 190.765 143.258 189.8 143.26H187.88V142.1H189.8C190.931 142.099 192.046 142.359 193.06 142.86L192.58 143.91ZM182.84 143.26H177.84V142.1H182.84V143.26ZM172.75 143.26H167.75V142.1H172.75V143.26ZM162.67 143.26H157.67V142.1H162.67V143.26ZM152.58 143.26H147.58V142.1H152.58V143.26ZM142.5 143.26H137.45V142.1H142.5V143.26ZM132.41 143.26H127.41V142.1H132.41V143.26ZM122.33 143.26H117.33V142.1H122.33V143.26ZM112.24 143.26H107.24V142.1H112.24V143.26ZM102.15 143.26H97.15V142.18H102.15V143.26Z" fill="#407BFF"/>
<path d="M97.4204 98.06C97.4204 99.0059 97.1398 99.9304 96.6141 100.717C96.0884 101.503 95.3413 102.116 94.4673 102.477C93.5933 102.839 92.6316 102.933 91.7041 102.747C90.7766 102.562 89.9249 102.106 89.2568 101.436C88.5888 100.767 88.1343 99.9143 87.951 98.9864C87.7677 98.0585 87.8638 97.0971 88.2271 96.2239C88.5904 95.3506 89.2046 94.6048 89.992 94.0808C90.7794 93.5567 91.7045 93.2781 92.6504 93.28C93.9164 93.2827 95.1296 93.7875 96.0239 94.6836C96.9181 95.5797 97.4204 96.794 97.4204 98.06Z" fill="#407BFF"/>
<path opacity="0.2" d="M128.76 100.85H105.35C104.61 100.847 103.901 100.553 103.376 100.031C102.852 99.5082 102.555 98.8001 102.55 98.06C102.552 97.3182 102.848 96.6076 103.373 96.083C103.897 95.5585 104.608 95.2626 105.35 95.26H128.76C129.502 95.2626 130.212 95.5585 130.737 96.083C131.261 96.6076 131.557 97.3182 131.56 98.06C131.555 98.8001 131.258 99.5082 130.733 100.031C130.209 100.553 129.5 100.847 128.76 100.85Z" fill="#407BFF"/>
<path opacity="0.2" d="M241.66 99.5898H225.23C224.824 99.5898 224.435 99.4286 224.148 99.1417C223.861 98.8548 223.7 98.4656 223.7 98.0598C223.699 97.8585 223.738 97.659 223.814 97.4727C223.89 97.2865 224.003 97.1173 224.145 96.975C224.288 96.8326 224.457 96.72 224.643 96.6436C224.829 96.5672 225.029 96.5285 225.23 96.5298H241.66C241.862 96.5285 242.061 96.5672 242.247 96.6436C242.434 96.72 242.603 96.8326 242.745 96.975C242.887 97.1173 243 97.2865 243.076 97.4727C243.153 97.659 243.192 97.8585 243.19 98.0598C243.19 98.4656 243.029 98.8548 242.742 99.1417C242.455 99.4286 242.066 99.5898 241.66 99.5898Z" fill="#407BFF"/>
<path opacity="0.2" d="M278.53 99.5898H262.1C261.695 99.5872 261.308 99.4252 261.021 99.1388C260.735 98.8524 260.573 98.4648 260.57 98.0598C260.57 97.654 260.732 97.2649 261.018 96.9779C261.305 96.691 261.695 96.5298 262.1 96.5298H278.53C278.732 96.5285 278.931 96.5672 279.117 96.6436C279.304 96.72 279.473 96.8326 279.615 96.975C279.757 97.1173 279.87 97.2865 279.947 97.4727C280.023 97.659 280.062 97.8585 280.06 98.0598C280.06 98.4656 279.899 98.8548 279.612 99.1417C279.325 99.4286 278.936 99.5898 278.53 99.5898Z" fill="#407BFF"/>
<path opacity="0.2" d="M315.401 99.5898H299.001C298.596 99.5872 298.208 99.4252 297.922 99.1388C297.635 98.8524 297.473 98.4648 297.471 98.0598C297.471 97.654 297.632 97.2649 297.919 96.9779C298.206 96.691 298.595 96.5298 299.001 96.5298H315.401C315.602 96.5285 315.803 96.5671 315.989 96.6434C316.176 96.7197 316.346 96.8322 316.489 96.9744C316.632 97.1166 316.746 97.2857 316.823 97.472C316.901 97.6583 316.941 97.858 316.941 98.0598C316.938 98.4665 316.775 98.8557 316.486 99.1423C316.198 99.429 315.807 99.5898 315.401 99.5898Z" fill="#407BFF"/>
<path opacity="0.2" d="M352.281 99.59H335.841C335.436 99.5874 335.048 99.4254 334.762 99.139C334.475 98.8526 334.313 98.465 334.311 98.06C334.311 97.6542 334.472 97.2651 334.759 96.9782C335.046 96.6912 335.435 96.53 335.841 96.53H352.281C352.686 96.53 353.075 96.6912 353.362 96.9782C353.649 97.2651 353.811 97.6542 353.811 98.06C353.808 98.465 353.646 98.8526 353.36 99.139C353.073 99.4254 352.686 99.5874 352.281 99.59Z" fill="#407BFF"/>
<path opacity="0.7" d="M399.46 100.76H374.6C373.884 100.76 373.198 100.475 372.691 99.969C372.185 99.4627 371.9 98.7759 371.9 98.0599C371.899 97.7044 371.968 97.3523 372.103 97.0235C372.238 96.6948 372.437 96.396 372.688 96.1442C372.939 95.8924 373.237 95.6926 373.565 95.5563C373.893 95.42 374.245 95.3499 374.6 95.3499H399.46C399.816 95.3499 400.168 95.42 400.496 95.5563C400.824 95.6926 401.122 95.8924 401.373 96.1442C401.624 96.396 401.823 96.6948 401.958 97.0235C402.093 97.3523 402.162 97.7044 402.16 98.0599C402.16 98.7759 401.876 99.4627 401.37 99.969C400.863 100.475 400.176 100.76 399.46 100.76Z" fill="#407BFF"/>
<path opacity="0.7" d="M276.02 270.74H229.46C226.279 270.74 223.7 273.319 223.7 276.5V277.75C223.7 280.931 226.279 283.51 229.46 283.51H276.02C279.201 283.51 281.78 280.931 281.78 277.75V276.5C281.78 273.319 279.201 270.74 276.02 270.74Z" fill="#407BFF"/>
<path opacity="0.2" d="M399.101 213.69V165.07C399.099 164.869 399.138 164.669 399.214 164.483C399.291 164.297 399.403 164.127 399.546 163.985C399.688 163.843 399.857 163.73 400.044 163.654C400.23 163.577 400.429 163.538 400.631 163.54C401.036 163.54 401.426 163.701 401.712 163.988C401.999 164.275 402.161 164.664 402.161 165.07V213.69C402.161 214.096 401.999 214.485 401.712 214.772C401.426 215.059 401.036 215.22 400.631 215.22C400.429 215.221 400.23 215.183 400.044 215.106C399.857 215.03 399.688 214.917 399.546 214.775C399.403 214.632 399.291 214.463 399.214 214.277C399.138 214.091 399.099 213.891 399.101 213.69Z" fill="#407BFF"/>
<path opacity="0.2" d="M400.631 229.09C401.476 229.09 402.161 228.405 402.161 227.56C402.161 226.715 401.476 226.03 400.631 226.03C399.786 226.03 399.101 226.715 399.101 227.56C399.101 228.405 399.786 229.09 400.631 229.09Z" fill="#407BFF"/>
<path opacity="0.2" d="M400.631 250.71C401.476 250.71 402.161 250.025 402.161 249.18C402.161 248.335 401.476 247.65 400.631 247.65C399.786 247.65 399.101 248.335 399.101 249.18C399.101 250.025 399.786 250.71 400.631 250.71Z" fill="#407BFF"/>
<path opacity="0.2" d="M400.631 272.33C401.476 272.33 402.161 271.645 402.161 270.8C402.161 269.955 401.476 269.27 400.631 269.27C399.786 269.27 399.101 269.955 399.101 270.8C399.101 271.645 399.786 272.33 400.631 272.33Z" fill="#407BFF"/>
<path opacity="0.2" d="M354.44 142.64H235.98C229.198 142.64 223.7 148.136 223.7 154.915C223.7 161.694 229.198 167.19 235.98 167.19H354.44C361.222 167.19 366.72 161.694 366.72 154.915C366.72 148.136 361.222 142.64 354.44 142.64Z" fill="#407BFF"/>
<path opacity="0.2" d="M311.001 202.84H236.001C232.746 202.832 229.627 201.536 227.326 199.235C225.025 196.933 223.729 193.814 223.721 190.56C223.729 187.306 225.025 184.187 227.326 181.886C229.627 179.584 232.746 178.288 236.001 178.28H311.001C314.253 178.291 317.37 179.588 319.669 181.889C321.968 184.19 323.263 187.307 323.271 190.56C323.263 193.813 321.968 196.93 319.669 199.231C317.37 201.532 314.253 202.829 311.001 202.84Z" fill="#407BFF"/>
<path d="M333 231.55H226.57C225.81 231.547 225.081 231.244 224.544 230.706C224.006 230.169 223.703 229.44 223.7 228.68C223.703 227.919 224.006 227.191 224.544 226.653C225.081 226.116 225.81 225.812 226.57 225.81H333C333.761 225.812 334.489 226.116 335.027 226.653C335.564 227.191 335.868 227.919 335.87 228.68C335.868 229.44 335.564 230.169 335.027 230.706C334.489 231.244 333.761 231.547 333 231.55Z" fill="#EBEBEB"/>
<path d="M358.05 231.55H347.16C346.4 231.547 345.671 231.244 345.134 230.706C344.596 230.169 344.293 229.44 344.29 228.68C344.293 227.919 344.596 227.191 345.134 226.653C345.671 226.116 346.4 225.812 347.16 225.81H358.05C358.81 225.812 359.539 226.116 360.077 226.653C360.614 227.191 360.917 227.919 360.92 228.68C360.917 229.44 360.614 230.169 360.077 230.706C359.539 231.244 358.81 231.547 358.05 231.55Z" fill="#EBEBEB"/>
<path d="M273.471 237.69H319.241C320.001 237.693 320.729 237.996 321.267 238.533C321.805 239.071 322.108 239.8 322.111 240.56C322.108 241.32 321.805 242.049 321.267 242.586C320.729 243.124 320.001 243.427 319.241 243.43H273.471C272.71 243.427 271.982 243.124 271.444 242.586C270.906 242.049 270.603 241.32 270.601 240.56C270.603 239.8 270.906 239.071 271.444 238.533C271.982 237.996 272.71 237.693 273.471 237.69Z" fill="#EBEBEB"/>
<path d="M226.57 237.69H259.34C260.101 237.693 260.829 237.996 261.367 238.533C261.904 239.071 262.208 239.8 262.21 240.56C262.208 241.32 261.904 242.049 261.367 242.586C260.829 243.124 260.101 243.427 259.34 243.43H226.57C225.81 243.427 225.081 243.124 224.544 242.586C224.006 242.049 223.703 241.32 223.7 240.56C223.703 239.8 224.006 239.071 224.544 238.533C225.081 237.996 225.81 237.693 226.57 237.69Z" fill="#EBEBEB"/>
<path d="M291.06 255.31H226.57C225.81 255.307 225.081 255.004 224.544 254.466C224.006 253.929 223.703 253.2 223.7 252.44C223.703 251.679 224.006 250.951 224.544 250.413C225.081 249.876 225.81 249.572 226.57 249.57H291.06C291.821 249.572 292.549 249.876 293.087 250.413C293.624 250.951 293.928 251.679 293.93 252.44C293.928 253.2 293.624 253.929 293.087 254.466C292.549 255.004 291.821 255.307 291.06 255.31Z" fill="#EBEBEB"/>
<path d="M338.001 255.31H305.181C304.42 255.307 303.692 255.004 303.154 254.466C302.616 253.929 302.313 253.2 302.311 252.44C302.313 251.679 302.616 250.951 303.154 250.413C303.692 249.876 304.42 249.572 305.181 249.57H338.001C338.761 249.572 339.489 249.876 340.027 250.413C340.565 250.951 340.868 251.679 340.871 252.44C340.868 253.2 340.565 253.929 340.027 254.466C339.489 255.004 338.761 255.307 338.001 255.31Z" fill="#EBEBEB"/>
</svg>
