<svg width="98" height="78" viewBox="0 0 98 78" fill="none" xmlns="http://www.w3.org/2000/svg">
<path d="M53.8337 58.3624L87.667 58.1352V9.96136L62.6787 9.99519L53.911 18.7629L53.8337 58.3624ZM44.167 18.7629L35.3655 10.1837L10.3337 10.0145V58.1352L44.167 58.3624V18.7629ZM39.3337 0.541189L49.0003 10L58.667 0.333355L87.6525 0.294689C88.9219 0.292783 90.1793 0.540931 91.3529 1.02497C92.5264 1.509 93.5931 2.21945 94.4921 3.11573C95.3911 4.01202 96.1047 5.0766 96.5923 6.24868C97.0798 7.42077 97.3317 8.67741 97.3336 9.94685V58.1352C97.3337 60.6873 96.3246 63.1358 94.5263 64.9467C92.7281 66.7577 90.2867 67.784 87.7346 67.8019L58.667 68L49.0197 77.6667L39.3337 68L10.266 67.8019C7.71398 67.784 5.27257 66.7577 3.47433 64.9467C1.67608 63.1358 0.66693 60.6873 0.666992 58.1352V10.0145C0.666992 7.45076 1.68544 4.99201 3.49829 3.17916C5.31114 1.36631 7.7699 0.347854 10.3337 0.347854L39.3337 0.541189Z" fill="white"/>
</svg>
