<svg width="92" height="46" viewBox="0 0 92 46" fill="none" xmlns="http://www.w3.org/2000/svg">
<path d="M2.68857 0.90909H10.2738L18.2852 20.4545H18.6261L26.6374 0.90909H34.2227V30H28.2567V11.0653H28.0153L20.4869 29.858H16.4244L8.89595 10.9943H8.65447V30H2.68857V0.90909ZM39.2901 30V0.90909H50.7674C52.9738 0.90909 54.8536 1.33049 56.4066 2.1733C57.9596 3.00663 59.1433 4.16667 59.9577 5.65341C60.7816 7.13068 61.1935 8.83523 61.1935 10.767C61.1935 12.6989 60.7769 14.4034 59.9435 15.8807C59.1102 17.358 57.9028 18.5085 56.3214 19.3324C54.7494 20.1562 52.846 20.5682 50.6112 20.5682H43.2958V15.6392H49.6168C50.8005 15.6392 51.7759 15.4356 52.543 15.0284C53.3195 14.6117 53.8971 14.0388 54.2759 13.3097C54.6642 12.571 54.8583 11.7235 54.8583 10.767C54.8583 9.80114 54.6642 8.95833 54.2759 8.23864C53.8971 7.50947 53.3195 6.94602 52.543 6.5483C51.7665 6.1411 50.7816 5.9375 49.5884 5.9375H45.4407V30H39.2901ZM83.1573 0.90909H89.3079V19.8011C89.3079 21.9223 88.8013 23.7784 87.788 25.3693C86.7842 26.9602 85.378 28.2008 83.5692 29.0909C81.7605 29.9716 79.6535 30.4119 77.2482 30.4119C74.8335 30.4119 72.7217 29.9716 70.913 29.0909C69.1043 28.2008 67.698 26.9602 66.6942 25.3693C65.6905 23.7784 65.1886 21.9223 65.1886 19.8011V0.90909H71.3391V19.2756C71.3391 20.3835 71.5806 21.3684 72.0636 22.2301C72.556 23.0919 73.2473 23.7689 74.1374 24.2614C75.0276 24.7538 76.0645 25 77.2482 25C78.4414 25 79.4783 24.7538 80.359 24.2614C81.2492 23.7689 81.9357 23.0919 82.4187 22.2301C82.9111 21.3684 83.1573 20.3835 83.1573 19.2756V0.90909Z" fill="white"/>
<rect x="2" y="38" width="89" height="8" fill="white"/>
</svg>
