<svg width="486" height="121" viewBox="0 0 486 121" fill="none" xmlns="http://www.w3.org/2000/svg">
<path d="M11.7017 0.454544H23.8381L36.6562 31.7273H37.2017L50.0199 0.454544H62.1562V47H52.6108V16.7045H52.2244L40.179 46.7727H33.679L21.6335 16.5909H21.2472V47H11.7017V0.454544ZM70.2642 47V0.454544H88.6278C92.1581 0.454544 95.1657 1.12879 97.6506 2.47727C100.135 3.81061 102.029 5.66667 103.332 8.04545C104.651 10.4091 105.31 13.1364 105.31 16.2273C105.31 19.3182 104.643 22.0455 103.31 24.4091C101.976 26.7727 100.045 28.6136 97.5142 29.9318C94.9991 31.25 91.9536 31.9091 88.3778 31.9091H76.6733V24.0227H86.7869C88.6809 24.0227 90.2415 23.697 91.4688 23.0455C92.7112 22.3788 93.6354 21.4621 94.2415 20.2955C94.8627 19.1136 95.1733 17.7576 95.1733 16.2273C95.1733 14.6818 94.8627 13.3333 94.2415 12.1818C93.6354 11.0151 92.7112 10.1136 91.4688 9.47727C90.2263 8.82576 88.6506 8.5 86.7415 8.5H80.1051V47H70.2642ZM140.452 0.454544H150.293V30.6818C150.293 34.0758 149.482 37.0455 147.861 39.5909C146.255 42.1364 144.005 44.1212 141.111 45.5455C138.217 46.9545 134.846 47.6591 130.997 47.6591C127.134 47.6591 123.755 46.9545 120.861 45.5455C117.967 44.1212 115.717 42.1364 114.111 39.5909C112.505 37.0455 111.702 34.0758 111.702 30.6818V0.454544H121.543V29.8409C121.543 31.6136 121.929 33.1894 122.702 34.5682C123.49 35.947 124.596 37.0303 126.02 37.8182C127.444 38.6061 129.103 39 130.997 39C132.906 39 134.565 38.6061 135.974 37.8182C137.399 37.0303 138.497 35.947 139.27 34.5682C140.058 33.1894 140.452 31.6136 140.452 29.8409V0.454544Z" fill="white"/>
<path d="M171.377 9.18182H176.213L182.691 24.9915H182.946L189.423 9.18182H194.26V31H190.468V16.0107H190.265L184.235 30.9361H181.401L175.372 15.9787H175.169V31H171.377V9.18182ZM198.394 31V14.6364H202.25V31H198.394ZM200.333 12.3139C199.722 12.3139 199.196 12.1115 198.756 11.7067C198.316 11.2947 198.095 10.8011 198.095 10.2259C198.095 9.64347 198.316 9.14986 198.756 8.74503C199.196 8.3331 199.722 8.12713 200.333 8.12713C200.95 8.12713 201.476 8.3331 201.909 8.74503C202.35 9.14986 202.57 9.64347 202.57 10.2259C202.57 10.8011 202.35 11.2947 201.909 11.7067C201.476 12.1115 200.95 12.3139 200.333 12.3139ZM210.072 21.4119V31H206.216V14.6364H209.902V17.4169H210.094C210.47 16.5007 211.07 15.7727 211.894 15.233C212.725 14.6932 213.751 14.4233 214.973 14.4233C216.102 14.4233 217.086 14.6648 217.924 15.1477C218.769 15.6307 219.423 16.3303 219.884 17.2464C220.353 18.1626 220.584 19.2741 220.577 20.581V31H216.72V21.1776C216.72 20.0838 216.436 19.228 215.868 18.6101C215.307 17.9922 214.529 17.6832 213.535 17.6832C212.86 17.6832 212.26 17.8324 211.734 18.1307C211.216 18.4219 210.808 18.8445 210.509 19.3984C210.218 19.9524 210.072 20.6236 210.072 21.4119ZM224.497 31V14.6364H228.354V31H224.497ZM226.436 12.3139C225.825 12.3139 225.3 12.1115 224.859 11.7067C224.419 11.2947 224.199 10.8011 224.199 10.2259C224.199 9.64347 224.419 9.14986 224.859 8.74503C225.3 8.3331 225.825 8.12713 226.436 8.12713C227.054 8.12713 227.58 8.3331 228.013 8.74503C228.453 9.14986 228.673 9.64347 228.673 10.2259C228.673 10.8011 228.453 11.2947 228.013 11.7067C227.58 12.1115 227.054 12.3139 226.436 12.3139ZM245.253 18.9616L241.737 19.3452C241.638 18.9901 241.464 18.6562 241.215 18.3438C240.974 18.0312 240.647 17.7791 240.235 17.5874C239.823 17.3956 239.319 17.2997 238.722 17.2997C237.92 17.2997 237.245 17.4737 236.698 17.8217C236.158 18.1697 235.892 18.6207 235.899 19.1747C235.892 19.6506 236.066 20.0376 236.421 20.3359C236.783 20.6342 237.38 20.8793 238.211 21.071L241.002 21.6676C242.55 22.0014 243.701 22.5305 244.454 23.255C245.214 23.9794 245.597 24.9276 245.604 26.0994C245.597 27.1293 245.295 28.0384 244.699 28.8267C244.109 29.608 243.289 30.2187 242.238 30.6591C241.187 31.0994 239.979 31.3196 238.616 31.3196C236.613 31.3196 235.001 30.9006 233.779 30.0625C232.557 29.2173 231.829 28.0419 231.595 26.5362L235.356 26.174C235.526 26.9126 235.888 27.4702 236.442 27.8466C236.996 28.223 237.717 28.4112 238.605 28.4112C239.521 28.4112 240.256 28.223 240.81 27.8466C241.371 27.4702 241.652 27.005 241.652 26.451C241.652 25.9822 241.471 25.5952 241.108 25.2898C240.753 24.9844 240.199 24.75 239.447 24.5866L236.655 24.0007C235.086 23.674 233.925 23.1236 233.172 22.3494C232.419 21.5682 232.046 20.581 232.053 19.3878C232.046 18.3793 232.319 17.5057 232.873 16.767C233.434 16.0213 234.212 15.446 235.206 15.0412C236.208 14.6293 237.362 14.4233 238.669 14.4233C240.586 14.4233 242.096 14.8317 243.197 15.6484C244.305 16.4652 244.99 17.5696 245.253 18.9616ZM256.955 14.6364V17.6193H247.548V14.6364H256.955ZM249.871 10.7159H253.727V26.0781C253.727 26.5966 253.806 26.9943 253.962 27.2713C254.125 27.5412 254.338 27.7259 254.601 27.8253C254.864 27.9247 255.155 27.9744 255.475 27.9744C255.716 27.9744 255.936 27.9567 256.135 27.9212C256.341 27.8857 256.497 27.8537 256.604 27.8253L257.254 30.8402C257.048 30.9112 256.753 30.9893 256.369 31.0746C255.993 31.1598 255.531 31.2095 254.985 31.2237C254.019 31.2521 253.149 31.1065 252.374 30.7869C251.6 30.4602 250.986 29.956 250.531 29.2741C250.084 28.5923 249.864 27.7401 249.871 26.7173V10.7159ZM267.249 31.3196C265.609 31.3196 264.192 30.9787 262.999 30.2969C261.813 29.608 260.9 28.6349 260.261 27.3778C259.621 26.1136 259.302 24.6257 259.302 22.9141C259.302 21.2308 259.621 19.7536 260.261 18.4822C260.907 17.2038 261.809 16.2095 262.967 15.4993C264.124 14.782 265.484 14.4233 267.047 14.4233C268.055 14.4233 269.007 14.5866 269.902 14.9134C270.804 15.233 271.599 15.7301 272.288 16.4048C272.984 17.0795 273.531 17.9389 273.929 18.983C274.327 20.0199 274.526 21.2557 274.526 22.6903V23.8729H261.113V21.2734H270.829C270.822 20.5348 270.662 19.8778 270.349 19.3026C270.037 18.7202 269.6 18.2621 269.039 17.9283C268.485 17.5945 267.839 17.4276 267.1 17.4276C266.312 17.4276 265.619 17.6193 265.023 18.0028C264.426 18.3793 263.961 18.8764 263.627 19.4943C263.3 20.1051 263.134 20.7763 263.126 21.5078V23.777C263.126 24.7287 263.3 25.5455 263.648 26.2273C263.996 26.902 264.483 27.4205 265.108 27.7827C265.733 28.1378 266.464 28.3153 267.303 28.3153C267.864 28.3153 268.371 28.2372 268.826 28.081C269.281 27.9176 269.675 27.6797 270.009 27.3672C270.342 27.0547 270.594 26.6676 270.765 26.206L274.366 26.6108C274.138 27.5625 273.705 28.3935 273.066 29.1037C272.434 29.8068 271.624 30.3537 270.637 30.7443C269.65 31.1278 268.521 31.3196 267.249 31.3196ZM265.46 12.4844L267.846 7.61577H271.617L268.347 12.4844H265.46ZM277.788 31V14.6364H281.528V17.3636H281.698C281.996 16.419 282.508 15.6911 283.232 15.1797C283.964 14.6612 284.798 14.402 285.736 14.402C285.949 14.402 286.187 14.4126 286.449 14.4339C286.719 14.4482 286.943 14.473 287.121 14.5085V18.0561C286.957 17.9993 286.698 17.9496 286.343 17.907C285.995 17.8572 285.657 17.8324 285.331 17.8324C284.628 17.8324 283.996 17.9851 283.434 18.2905C282.881 18.5888 282.444 19.0043 282.124 19.5369C281.805 20.0696 281.645 20.6839 281.645 21.38V31H277.788ZM289.683 31V14.6364H293.539V31H289.683ZM291.622 12.3139C291.011 12.3139 290.485 12.1115 290.045 11.7067C289.605 11.2947 289.384 10.8011 289.384 10.2259C289.384 9.64347 289.605 9.14986 290.045 8.74503C290.485 8.3331 291.011 8.12713 291.622 8.12713C292.24 8.12713 292.765 8.3331 293.198 8.74503C293.639 9.14986 293.859 9.64347 293.859 10.2259C293.859 10.8011 293.639 11.2947 293.198 11.7067C292.765 12.1115 292.24 12.3139 291.622 12.3139ZM304.643 31.3196C303.045 31.3196 301.66 30.968 300.488 30.2649C299.316 29.5618 298.407 28.5781 297.761 27.3139C297.121 26.0497 296.802 24.5724 296.802 22.8821C296.802 21.1918 297.121 19.7109 297.761 18.4396C298.407 17.1683 299.316 16.1811 300.488 15.478C301.66 14.7749 303.045 14.4233 304.643 14.4233C306.241 14.4233 307.626 14.7749 308.798 15.478C309.969 16.1811 310.875 17.1683 311.514 18.4396C312.161 19.7109 312.484 21.1918 312.484 22.8821C312.484 24.5724 312.161 26.0497 311.514 27.3139C310.875 28.5781 309.969 29.5618 308.798 30.2649C307.626 30.968 306.241 31.3196 304.643 31.3196ZM304.664 28.2301C305.531 28.2301 306.255 27.9922 306.837 27.5163C307.42 27.0334 307.853 26.3871 308.137 25.5774C308.428 24.7678 308.574 23.8658 308.574 22.8714C308.574 21.87 308.428 20.9645 308.137 20.1548C307.853 19.3381 307.42 18.6882 306.837 18.2053C306.255 17.7223 305.531 17.4808 304.664 17.4808C303.776 17.4808 303.038 17.7223 302.448 18.2053C301.866 18.6882 301.429 19.3381 301.138 20.1548C300.854 20.9645 300.712 21.87 300.712 22.8714C300.712 23.8658 300.854 24.7678 301.138 25.5774C301.429 26.3871 301.866 27.0334 302.448 27.5163C303.038 27.9922 303.776 28.2301 304.664 28.2301Z" fill="white"/>
<path d="M170.414 60V38.1818H179.427C181.06 38.1818 182.47 38.5014 183.656 39.1406C184.849 39.7727 185.769 40.657 186.415 41.7933C187.062 42.9226 187.385 44.2365 187.385 45.7351C187.385 47.2408 187.055 48.5582 186.394 49.6875C185.741 50.8097 184.807 51.6797 183.592 52.2976C182.378 52.9155 180.936 53.2244 179.267 53.2244H173.706V49.0696H178.287C179.082 49.0696 179.746 48.9311 180.279 48.6541C180.819 48.3771 181.227 47.9901 181.504 47.4929C181.781 46.9886 181.92 46.4027 181.92 45.7351C181.92 45.0604 181.781 44.478 181.504 43.9879C181.227 43.4908 180.819 43.1072 180.279 42.8374C179.739 42.5675 179.075 42.4325 178.287 42.4325H175.687V60H170.414ZM200.542 52.9368V43.6364H205.741V60H200.776V56.9531H200.606C200.244 57.9545 199.626 58.75 198.752 59.3395C197.886 59.9219 196.838 60.2131 195.609 60.2131C194.494 60.2131 193.514 59.9574 192.669 59.446C191.824 58.9347 191.167 58.2209 190.698 57.3047C190.229 56.3814 189.991 55.3018 189.984 54.0661V43.6364H195.194V53.0433C195.201 53.9311 195.435 54.6307 195.897 55.142C196.359 55.6534 196.987 55.9091 197.783 55.9091C198.301 55.9091 198.766 55.7955 199.178 55.5682C199.597 55.3338 199.927 54.9964 200.169 54.5561C200.418 54.1087 200.542 53.5689 200.542 52.9368ZM196.089 41.5589L198.241 36.7543H202.854L199.636 41.5589H196.089ZM209.057 60V38.1818H214.266V46.4382H214.373C214.586 45.9411 214.888 45.4616 215.278 45C215.676 44.5384 216.18 44.1619 216.791 43.8707C217.409 43.5724 218.147 43.4233 219.007 43.4233C220.143 43.4233 221.205 43.7216 222.192 44.3182C223.187 44.9148 223.989 45.8345 224.6 47.0774C225.211 48.3203 225.516 49.9041 225.516 51.8288C225.516 53.6825 225.221 55.2344 224.632 56.4844C224.049 57.7344 223.261 58.6719 222.267 59.2969C221.28 59.9219 220.182 60.2344 218.975 60.2344C218.151 60.2344 217.437 60.0994 216.834 59.8295C216.23 59.5597 215.722 59.2045 215.31 58.7642C214.905 58.3239 214.593 57.8516 214.373 57.3473H214.213V60H209.057ZM214.16 51.8182C214.16 52.6989 214.277 53.4659 214.511 54.1193C214.753 54.7727 215.097 55.2805 215.544 55.6428C215.999 55.9979 216.542 56.1754 217.174 56.1754C217.814 56.1754 218.357 55.9979 218.804 55.6428C219.252 55.2805 219.589 54.7727 219.816 54.1193C220.051 53.4659 220.168 52.6989 220.168 51.8182C220.168 50.9375 220.051 50.174 219.816 49.5277C219.589 48.8814 219.252 48.3807 218.804 48.0256C218.364 47.6705 217.821 47.4929 217.174 47.4929C216.535 47.4929 215.992 47.6669 215.544 48.0149C215.097 48.3629 214.753 48.8601 214.511 49.5064C214.277 50.1527 214.16 50.9233 214.16 51.8182ZM233.456 38.1818V60H228.246V38.1818H233.456ZM236.771 60V43.6364H241.981V60H236.771ZM239.381 41.7294C238.65 41.7294 238.021 41.4879 237.496 41.005C236.97 40.5149 236.707 39.9254 236.707 39.2365C236.707 38.5547 236.97 37.9723 237.496 37.4893C238.021 36.9993 238.65 36.7543 239.381 36.7543C240.12 36.7543 240.749 36.9993 241.267 37.4893C241.793 37.9723 242.055 38.5547 242.055 39.2365C242.055 39.9254 241.793 40.5149 241.267 41.005C240.749 41.4879 240.12 41.7294 239.381 41.7294ZM252.935 60.3089C251.209 60.3089 249.729 59.9538 248.493 59.2436C247.264 58.5334 246.32 57.5462 245.659 56.282C244.998 55.0107 244.668 53.5405 244.668 51.8714C244.668 50.1953 244.998 48.7251 245.659 47.4609C246.327 46.1896 247.275 45.1989 248.503 44.4886C249.739 43.7784 251.213 43.4233 252.925 43.4233C254.437 43.4233 255.755 43.6967 256.877 44.2436C258.006 44.7905 258.887 45.5646 259.519 46.5661C260.158 47.5604 260.496 48.7287 260.531 50.071H255.663C255.563 49.233 255.279 48.576 254.81 48.1001C254.349 47.6243 253.745 47.3864 252.999 47.3864C252.396 47.3864 251.866 47.5568 251.412 47.8977C250.957 48.2315 250.602 48.7287 250.347 49.3892C250.098 50.0426 249.974 50.8523 249.974 51.8182C249.974 52.7841 250.098 53.6009 250.347 54.2685C250.602 54.929 250.957 55.4297 251.412 55.7706C251.866 56.1044 252.396 56.2713 252.999 56.2713C253.482 56.2713 253.908 56.1683 254.278 55.9624C254.654 55.7564 254.963 55.4545 255.204 55.0568C255.446 54.652 255.599 54.1619 255.663 53.5866H260.531C260.481 54.9361 260.144 56.1151 259.519 57.1236C258.901 58.1321 258.031 58.9169 256.909 59.478C255.794 60.032 254.469 60.3089 252.935 60.3089ZM270.836 60.3089C269.117 60.3089 267.64 59.9574 266.404 59.2543C265.175 58.544 264.227 57.5568 263.559 56.2926C262.899 55.0213 262.569 53.5476 262.569 51.8714C262.569 50.1882 262.899 48.7145 263.559 47.4503C264.227 46.179 265.175 45.1918 266.404 44.4886C267.64 43.7784 269.117 43.4233 270.836 43.4233C272.554 43.4233 274.028 43.7784 275.257 44.4886C276.493 45.1918 277.441 46.179 278.101 47.4503C278.769 48.7145 279.103 50.1882 279.103 51.8714C279.103 53.5476 278.769 55.0213 278.101 56.2926C277.441 57.5568 276.493 58.544 275.257 59.2543C274.028 59.9574 272.554 60.3089 270.836 60.3089ZM270.868 56.3778C271.493 56.3778 272.022 56.1861 272.455 55.8026C272.888 55.419 273.218 54.8864 273.446 54.2045C273.68 53.5227 273.797 52.7344 273.797 51.8395C273.797 50.9304 273.68 50.1349 273.446 49.4531C273.218 48.7713 272.888 48.2386 272.455 47.8551C272.022 47.4716 271.493 47.2798 270.868 47.2798C270.221 47.2798 269.674 47.4716 269.227 47.8551C268.787 48.2386 268.449 48.7713 268.215 49.4531C267.988 50.1349 267.874 50.9304 267.874 51.8395C267.874 52.7344 267.988 53.5227 268.215 54.2045C268.449 54.8864 268.787 55.419 269.227 55.8026C269.674 56.1861 270.221 56.3778 270.868 56.3778ZM294.193 60.2344C292.986 60.2344 291.889 59.9219 290.901 59.2969C289.914 58.6719 289.126 57.7344 288.536 56.4844C287.947 55.2344 287.652 53.6825 287.652 51.8288C287.652 49.9041 287.957 48.3203 288.568 47.0774C289.179 45.8345 289.978 44.9148 290.965 44.3182C291.96 43.7216 293.028 43.4233 294.172 43.4233C295.031 43.4233 295.766 43.5724 296.377 43.8707C296.988 44.1619 297.492 44.5384 297.89 45C298.288 45.4616 298.59 45.9411 298.796 46.4382H298.902V38.1818H304.112V60H298.955V57.3473H298.796C298.575 57.8516 298.263 58.3239 297.858 58.7642C297.453 59.2045 296.945 59.5597 296.335 59.8295C295.731 60.0994 295.017 60.2344 294.193 60.2344ZM296.004 56.1754C296.636 56.1754 297.176 55.9979 297.624 55.6428C298.071 55.2805 298.416 54.7727 298.657 54.1193C298.899 53.4659 299.019 52.6989 299.019 51.8182C299.019 50.9233 298.899 50.1527 298.657 49.5064C298.423 48.8601 298.078 48.3629 297.624 48.0149C297.176 47.6669 296.636 47.4929 296.004 47.4929C295.358 47.4929 294.811 47.6705 294.364 48.0256C293.916 48.3807 293.575 48.8814 293.341 49.5277C293.114 50.174 293 50.9375 293 51.8182C293 52.6989 293.117 53.4659 293.352 54.1193C293.586 54.7727 293.923 55.2805 294.364 55.6428C294.811 55.9979 295.358 56.1754 296.004 56.1754ZM312.019 60.277C310.975 60.277 310.048 60.103 309.239 59.755C308.436 59.3999 307.8 58.8672 307.332 58.157C306.87 57.4396 306.639 56.5412 306.639 55.4616C306.639 54.5526 306.799 53.7855 307.119 53.1605C307.438 52.5355 307.878 52.0277 308.44 51.6371C309.001 51.2464 309.647 50.9517 310.378 50.7528C311.11 50.5469 311.891 50.4084 312.722 50.3374C313.653 50.2521 314.402 50.1634 314.97 50.071C315.538 49.9716 315.95 49.8331 316.206 49.6555C316.469 49.4709 316.6 49.2116 316.6 48.8778V48.8246C316.6 48.2777 316.412 47.8551 316.035 47.5568C315.659 47.2585 315.151 47.1094 314.512 47.1094C313.823 47.1094 313.269 47.2585 312.85 47.5568C312.431 47.8551 312.165 48.267 312.051 48.7926L307.246 48.6222C307.388 47.6278 307.754 46.7401 308.344 45.9588C308.94 45.1705 309.757 44.5526 310.794 44.1051C311.838 43.6506 313.092 43.4233 314.555 43.4233C315.599 43.4233 316.561 43.5476 317.442 43.7962C318.322 44.0376 319.089 44.3928 319.743 44.8615C320.396 45.3232 320.9 45.8913 321.256 46.5661C321.618 47.2408 321.799 48.0114 321.799 48.8778V60H316.898V57.7202H316.771C316.479 58.2741 316.106 58.7429 315.652 59.1264C315.204 59.5099 314.675 59.7976 314.065 59.9893C313.461 60.1811 312.779 60.277 312.019 60.277ZM313.628 56.8679C314.189 56.8679 314.693 56.7543 315.141 56.527C315.595 56.2997 315.957 55.9872 316.227 55.5895C316.497 55.1847 316.632 54.7159 316.632 54.1832V52.6278C316.483 52.706 316.302 52.777 316.089 52.8409C315.883 52.9048 315.655 52.9652 315.407 53.022C315.158 53.0788 314.903 53.1286 314.64 53.1712C314.377 53.2138 314.125 53.2528 313.883 53.2884C313.393 53.3665 312.974 53.4872 312.626 53.6506C312.285 53.8139 312.023 54.027 311.838 54.2898C311.66 54.5455 311.572 54.8509 311.572 55.206C311.572 55.7457 311.763 56.1577 312.147 56.4418C312.538 56.7259 313.031 56.8679 313.628 56.8679ZM344.629 38.1818H349.892V52.255C349.892 53.8814 349.505 55.2983 348.731 56.5057C347.957 57.706 346.877 58.6364 345.492 59.2969C344.107 59.9503 342.498 60.277 340.666 60.277C338.812 60.277 337.193 59.9503 335.808 59.2969C334.423 58.6364 333.347 57.706 332.58 56.5057C331.813 55.2983 331.43 53.8814 331.43 52.255V38.1818H336.703V51.7969C336.703 52.5497 336.866 53.2209 337.193 53.8104C337.527 54.3999 337.992 54.8615 338.589 55.1953C339.185 55.5291 339.878 55.696 340.666 55.696C341.454 55.696 342.143 55.5291 342.733 55.1953C343.329 54.8615 343.795 54.3999 344.128 53.8104C344.462 53.2209 344.629 52.5497 344.629 51.7969V38.1818ZM358.407 50.6676V60H353.197V43.6364H358.151V46.6406H358.332C358.694 45.6392 359.312 44.8544 360.186 44.2862C361.059 43.7109 362.1 43.4233 363.307 43.4233C364.458 43.4233 365.456 43.6825 366.301 44.201C367.153 44.7124 367.814 45.4297 368.282 46.353C368.758 47.2692 368.993 48.3416 368.986 49.5703V60H363.776V50.593C363.783 49.6839 363.552 48.9737 363.084 48.4624C362.622 47.951 361.979 47.6953 361.155 47.6953C360.608 47.6953 360.125 47.8161 359.706 48.0575C359.294 48.2919 358.975 48.6293 358.748 49.0696C358.527 49.5099 358.414 50.0426 358.407 50.6676ZM372.211 60V43.6364H377.42V60H372.211ZM374.821 41.7294C374.089 41.7294 373.461 41.4879 372.935 41.005C372.41 40.5149 372.147 39.9254 372.147 39.2365C372.147 38.5547 372.41 37.9723 372.935 37.4893C373.461 36.9993 374.089 36.7543 374.821 36.7543C375.56 36.7543 376.188 36.9993 376.707 37.4893C377.232 37.9723 377.495 38.5547 377.495 39.2365C377.495 39.9254 377.232 40.5149 376.707 41.005C376.188 41.4879 375.56 41.7294 374.821 41.7294ZM385.349 60.277C384.305 60.277 383.378 60.103 382.569 59.755C381.766 59.3999 381.13 58.8672 380.662 58.157C380.2 57.4396 379.969 56.5412 379.969 55.4616C379.969 54.5526 380.129 53.7855 380.449 53.1605C380.768 52.5355 381.209 52.0277 381.77 51.6371C382.331 51.2464 382.977 50.9517 383.709 50.7528C384.44 50.5469 385.221 50.4084 386.052 50.3374C386.983 50.2521 387.732 50.1634 388.3 50.071C388.868 49.9716 389.28 49.8331 389.536 49.6555C389.799 49.4709 389.93 49.2116 389.93 48.8778V48.8246C389.93 48.2777 389.742 47.8551 389.366 47.5568C388.989 47.2585 388.481 47.1094 387.842 47.1094C387.153 47.1094 386.599 47.2585 386.18 47.5568C385.761 47.8551 385.495 48.267 385.381 48.7926L380.576 48.6222C380.718 47.6278 381.084 46.7401 381.674 45.9588C382.27 45.1705 383.087 44.5526 384.124 44.1051C385.168 43.6506 386.422 43.4233 387.885 43.4233C388.929 43.4233 389.891 43.5476 390.772 43.7962C391.652 44.0376 392.419 44.3928 393.073 44.8615C393.726 45.3232 394.231 45.8913 394.586 46.5661C394.948 47.2408 395.129 48.0114 395.129 48.8778V60H390.228V57.7202H390.101C389.809 58.2741 389.437 58.7429 388.982 59.1264C388.535 59.5099 388.005 59.7976 387.395 59.9893C386.791 60.1811 386.109 60.277 385.349 60.277ZM386.958 56.8679C387.519 56.8679 388.023 56.7543 388.471 56.527C388.925 56.2997 389.287 55.9872 389.557 55.5895C389.827 55.1847 389.962 54.7159 389.962 54.1832V52.6278C389.813 52.706 389.632 52.777 389.419 52.8409C389.213 52.9048 388.986 52.9652 388.737 53.022C388.488 53.0788 388.233 53.1286 387.97 53.1712C387.707 53.2138 387.455 53.2528 387.214 53.2884C386.723 53.3665 386.304 53.4872 385.956 53.6506C385.616 53.8139 385.353 54.027 385.168 54.2898C384.991 54.5455 384.902 54.8509 384.902 55.206C384.902 55.7457 385.093 56.1577 385.477 56.4418C385.868 56.7259 386.361 56.8679 386.958 56.8679ZM385.083 41.6122L382.366 41.5909C382.366 40.1491 382.711 39.0589 383.4 38.3203C384.089 37.5817 384.927 37.2088 385.914 37.2017C386.439 37.2017 386.887 37.2869 387.256 37.4574C387.633 37.6207 387.963 37.8161 388.247 38.0433C388.538 38.2635 388.808 38.4588 389.057 38.6293C389.312 38.7926 389.582 38.8743 389.866 38.8743C390.271 38.8672 390.569 38.718 390.761 38.4268C390.96 38.1286 391.063 37.7273 391.07 37.223L393.744 37.255C393.723 38.6825 393.371 39.7727 392.689 40.5256C392.008 41.2713 391.177 41.6477 390.196 41.6548C389.657 41.6619 389.199 41.5803 388.822 41.4098C388.446 41.2393 388.119 41.044 387.842 40.8239C387.572 40.6037 387.313 40.4119 387.064 40.2486C386.816 40.0781 386.542 39.9929 386.244 39.9929C385.896 39.9929 385.616 40.1349 385.402 40.419C385.189 40.696 385.083 41.0938 385.083 41.6122ZM405.953 60.3089C404.234 60.3089 402.757 59.9574 401.521 59.2543C400.292 58.544 399.344 57.5568 398.677 56.2926C398.016 55.0213 397.686 53.5476 397.686 51.8714C397.686 50.1882 398.016 48.7145 398.677 47.4503C399.344 46.179 400.292 45.1918 401.521 44.4886C402.757 43.7784 404.234 43.4233 405.953 43.4233C407.672 43.4233 409.145 43.7784 410.374 44.4886C411.61 45.1918 412.558 46.179 413.218 47.4503C413.886 48.7145 414.22 50.1882 414.22 51.8714C414.22 53.5476 413.886 55.0213 413.218 56.2926C412.558 57.5568 411.61 58.544 410.374 59.2543C409.145 59.9574 407.672 60.3089 405.953 60.3089ZM405.985 56.3778C406.61 56.3778 407.139 56.1861 407.572 55.8026C408.005 55.419 408.336 54.8864 408.563 54.2045C408.797 53.5227 408.915 52.7344 408.915 51.8395C408.915 50.9304 408.797 50.1349 408.563 49.4531C408.336 48.7713 408.005 48.2386 407.572 47.8551C407.139 47.4716 406.61 47.2798 405.985 47.2798C405.339 47.2798 404.792 47.4716 404.344 47.8551C403.904 48.2386 403.566 48.7713 403.332 49.4531C403.105 50.1349 402.991 50.9304 402.991 51.8395C402.991 52.7344 403.105 53.5227 403.332 54.2045C403.566 54.8864 403.904 55.419 404.344 55.8026C404.792 56.1861 405.339 56.3778 405.985 56.3778Z" fill="white"/>
</svg>
