<svg width="89" height="89" viewBox="0 0 89 89" fill="none" xmlns="http://www.w3.org/2000/svg">
<path d="M75.9262 3.47191L76.7643 2.63379C77.3952 2.00332 78.144 1.50328 78.9681 1.16221C79.7922 0.821145 80.6754 0.645735 81.5672 0.645996C82.4591 0.646258 83.3422 0.822185 84.1661 1.16373C84.99 1.50528 85.7385 2.00576 86.369 2.6366C86.9995 3.26744 87.4995 4.01628 87.8406 4.84036C88.1816 5.66445 88.3571 6.54765 88.3568 7.43953C88.3565 8.3314 88.1806 9.2145 87.8391 10.0384C87.4975 10.8623 86.997 11.6108 86.3662 12.2413L85.5281 13.0738C86.9618 14.6818 87.7262 16.7772 87.6644 18.9307C87.6027 21.0841 86.7196 23.1324 85.1962 24.6557L27.3037 82.5538C26.9418 82.9138 26.4887 83.1685 25.9931 83.2907L3.49307 88.9157C3.02221 89.0329 2.52903 89.0264 2.06146 88.8966C1.5939 88.7669 1.16785 88.5184 0.824739 88.1752C0.481627 87.8321 0.233121 87.4061 0.103378 86.9385C-0.0263647 86.471 -0.0329313 85.9778 0.0843167 85.5069L5.70932 63.0069C5.83239 62.5133 6.08706 62.0623 6.44619 61.7019L60.6824 7.46566C60.14 7.08389 59.4801 6.90612 58.8193 6.96376C58.1585 7.0214 57.5393 7.31074 57.0712 7.78066L38.5537 26.3038C38.2922 26.5653 37.9818 26.7727 37.6401 26.9142C37.2984 27.0558 36.9323 27.1286 36.5624 27.1286C36.1926 27.1286 35.8264 27.0558 35.4848 26.9142C35.1431 26.7727 34.8327 26.5653 34.5712 26.3038C34.3097 26.0423 34.1023 25.7319 33.9607 25.3902C33.8192 25.0485 33.7464 24.6823 33.7464 24.3125C33.7464 23.9427 33.8192 23.5765 33.9607 23.2349C34.1023 22.8932 34.3097 22.5828 34.5712 22.3213L53.0999 3.80379C54.6242 2.2795 56.674 1.3964 58.8288 1.33573C60.9836 1.27507 63.0799 2.04142 64.6874 3.47754C66.233 2.09625 68.2329 1.33223 70.3057 1.33119C72.3786 1.33015 74.3793 2.09218 75.9262 3.47191V3.47191ZM72.3037 7.78066C71.7763 7.2534 71.061 6.9572 70.3153 6.9572C69.5695 6.9572 68.8542 7.2534 68.3268 7.78066L10.9687 65.1275L6.67119 82.3232L23.8668 78.0257L81.2249 20.6788C81.4869 20.4175 81.6947 20.1072 81.8365 19.7655C81.9782 19.4238 82.0512 19.0575 82.0512 18.6875C82.0512 18.3176 81.9782 17.9513 81.8365 17.6096C81.6947 17.2679 81.4869 16.9575 81.2249 16.6963L72.3093 7.78066H72.3037Z" fill="white"/>
</svg>
